<svg xmlns="http://www.w3.org/2000/svg" viewBox="0 0 100 100"><path fill="#FFF" d="M89.8 9.7c-2.2-2.2-4.9-3.3-7.9-3.3H16.7c-3.1 0-5.7 1.1-7.9 3.3-2.2 2.2-3.3 4.9-3.3 7.9v65.2c0 3.1 1.1 5.7 3.3 7.9 2.2 2.2 4.9 3.3 7.9 3.3h65.2c3.1 0 5.7-1.1 7.9-3.3 2.2-2.2 3.3-4.9 3.3-7.9V17.7c0-3.1-1.1-5.8-3.3-8zM36.9 38c3.4-3.3 7.6-5 12.4-5 4.9 0 9 1.7 12.5 5 3.4 3.3 5.2 7.4 5.2 12.1 0 4.7-1.7 8.7-5.2 12.1-3.4 3.3-7.6 5-12.5 5-4.8 0-9-1.7-12.4-5-3.4-3.3-5.2-7.4-5.2-12.1 0-4.7 1.8-8.7 5.2-12.1zm46.3 42.5c0 1-.3 1.8-1 2.5s-1.5 1-2.5 1h-61c-1 0-1.8-.3-2.5-1s-1-1.5-1-2.5v-37h8.1c-.8 2.4-1.1 4.9-1.1 7.5 0 7.3 2.7 13.5 8 18.7 5.3 5.2 11.7 7.7 19.2 7.7 4.9 0 9.5-1.2 13.7-3.5 4.2-2.4 7.5-5.6 9.9-9.6 2.4-4.1 3.7-8.5 3.7-13.3 0-2.6-.4-5.1-1.1-7.5h7.7l-.1 37zm0-51c0 1.1-.4 2-1.1 2.8-.8.8-1.7 1.1-2.8 1.1h-9.9c-1.1 0-2-.4-2.8-1.1-.8-.8-1.1-1.7-1.1-2.8v-9.4c0-1.1.4-2 1.1-2.8.8-.8 1.7-1.2 2.8-1.2h9.9c1.1 0 2 .4 2.8 1.2.8.8 1.1 1.7 1.1 2.8v9.4z"/></svg>